<?xml version="1.0" encoding="UTF-8" standalone="no"?>
<svg
   xmlns:dc="http://purl.org/dc/elements/1.1/"
   xmlns:cc="http://creativecommons.org/ns#"
   xmlns:rdf="http://www.w3.org/1999/02/22-rdf-syntax-ns#"
   xmlns:svg="http://www.w3.org/2000/svg"
   xmlns="http://www.w3.org/2000/svg"
   xmlns:xlink="http://www.w3.org/1999/xlink"
   xmlns:sodipodi="http://sodipodi.sourceforge.net/DTD/sodipodi-0.dtd"
   xmlns:inkscape="http://www.inkscape.org/namespaces/inkscape"
   width="48.000355"
   height="48"
   style="fill-opacity:1;fill-rule:evenodd;stroke:none"
   id="svg2"
   version="1.1"
   inkscape:version="0.91 r13725"
   sodipodi:docname="TwitterJSON.svg">
  <metadata
     id="metadata80">
    <rdf:RDF>
      <cc:Work
         rdf:about="">
        <dc:format>image/svg+xml</dc:format>
        <dc:type
           rdf:resource="http://purl.org/dc/dcmitype/StillImage" />
        <dc:title />
      </cc:Work>
    </rdf:RDF>
  </metadata>
  <sodipodi:namedview
     pagecolor="#ffffff"
     bordercolor="#666666"
     borderopacity="1"
     objecttolerance="10"
     gridtolerance="10"
     guidetolerance="10"
     inkscape:pageopacity="0"
     inkscape:pageshadow="2"
     inkscape:window-width="3070"
     inkscape:window-height="1752"
     id="namedview78"
     showgrid="false"
     fit-margin-top="4"
     fit-margin-left="4"
     fit-margin-right="4"
     fit-margin-bottom="4"
     inkscape:zoom="34.532699"
     inkscape:cx="25.8347"
     inkscape:cy="21.414134"
     inkscape:window-x="130"
     inkscape:window-y="48"
     inkscape:window-maximized="1"
     inkscape:current-layer="svg2" />
  <defs
     id="defs4">
    <linearGradient
       id="gr1">
      <stop
         offset="0"
         style="stop-color:#000000;stop-opacity:0.1"
         id="stop7" />
      <stop
         offset="1"
         style="stop-color:#000000;stop-opacity:0"
         id="stop9" />
    </linearGradient>
    <linearGradient
       id="gr2"
       xlink:href="#gr1"
       x1="0.052000001"
       y1="0.977"
       x2="0.78299999"
       y2="0" />
    <linearGradient
       id="gr3">
      <stop
         offset="0"
         style="stop-color:#ffffff;stop-opacity:1"
         id="stop13" />
      <stop
         offset="1"
         style="stop-color:#ffffff;stop-opacity:0"
         id="stop15" />
    </linearGradient>
    <linearGradient
       id="gr4"
       xlink:href="#gr3"
       x1="1.557"
       y1="-0.55299997"
       x2="0.063000001"
       y2="0.54699999" />
    <linearGradient
       id="gr5">
      <stop
         offset="0"
         style="stop-color:#dadada;stop-opacity:1"
         id="stop19" />
      <stop
         offset="0.35"
         style="stop-color:#f1f1f1;stop-opacity:1"
         id="stop21" />
      <stop
         offset="1"
         style="stop-color:#f0f0f0;stop-opacity:1"
         id="stop23" />
    </linearGradient>
    <linearGradient
       id="gr6"
       xlink:href="#gr5"
       x1="0.88"
       y1="0.211"
       x2="0.085000001"
       y2="1.1799999" />
    <linearGradient
       id="gr7"
       xlink:href="#gr5"
       x1="0.63200003"
       y1="0.32800001"
       x2="-0.37599999"
       y2="1.3279999" />
    <path
       id="pathTagXML"
       d="m 4.2424884,2.9393196 2.9238281,0 1.5234375,2.6425781 1.476563,-2.6425781 2.894531,0 -2.671875,4.1601563 2.923828,4.4296871 -2.982422,0 -1.6933594,-2.7597653 -1.6992187,2.7597653 -2.9648438,0 L 6.9378009,7.0526009 4.2424884,2.9393196 z m 9.8906246,0 3.492188,0 1.347656,5.2265625 1.341797,-5.2265625 3.480469,0 0,8.5898434 -2.167969,0 0,-6.5507809 -1.681641,6.5507809 -1.96289,0 -1.675781,-6.5507809 0,6.5507809 -2.173829,0 0,-8.5898434 z m 11.34961,0 2.654297,0 0,6.4746094 4.142578,0 0,2.115234 -6.796875,0 0,-8.5898434 z"
       inkscape:connector-curvature="0" />
    <linearGradient
       x1="-666.11664"
       y1="413.04492"
       x2="-553.2699"
       y2="525.90759"
       id="linearGradient3005"
       xlink:href="#linearGradient8385"
       gradientUnits="userSpaceOnUse"
       gradientTransform="matrix(0.99884,0,0,0.998699,689.00774,-388.84375)" />
    <linearGradient
       id="linearGradient8385">
      <stop
         id="stop8387"
         style="stop-color:#000000;stop-opacity:1"
         offset="0" />
      <stop
         id="stop8389"
         style="stop-color:#ffffff;stop-opacity:1"
         offset="1" />
    </linearGradient>
    <linearGradient
       x1="-553.26971"
       y1="525.90778"
       x2="-666.11639"
       y2="413.0452"
       id="linearGradient3002"
       xlink:href="#linearGradient8385"
       gradientUnits="userSpaceOnUse"
       gradientTransform="matrix(0.99884,0,0,0.998699,689.00774,-388.84375)" />
    <linearGradient
       id="linearGradient3009">
      <stop
         id="stop3011"
         style="stop-color:#000000;stop-opacity:1"
         offset="0" />
      <stop
         id="stop3013"
         style="stop-color:#ffffff;stop-opacity:1"
         offset="1" />
    </linearGradient>
    <linearGradient
       y2="413.0452"
       x2="-666.11639"
       y1="525.90778"
       x1="-553.26971"
       gradientTransform="matrix(0.99884,0,0,0.998699,689.00774,-388.84375)"
       gradientUnits="userSpaceOnUse"
       id="linearGradient3018"
       xlink:href="#linearGradient8385"
       inkscape:collect="always" />
  </defs>
  <path
     inkscape:connector-curvature="0"
     d="M 43.885243,8.3964863 C 42.346072,9.079261 40.69164,9.54051 38.955627,9.7480204 40.72741,8.6857875 42.088567,7.003743 42.729505,4.999347 41.07089,5.9831372 39.234051,6.6972899 37.278813,7.0821869 35.713284,5.4139493 33.482553,4.3717968 31.013771,4.3717968 c -4.740097,0 -8.583379,3.8429088 -8.583379,8.5830052 0,0.672734 0.07573,1.327896 0.222152,1.956074 C 15.519056,14.552753 9.1943544,11.135743 4.9611101,5.9427647 4.2221907,7.2104166 3.798929,8.6849507 3.798929,10.258009 c 0,2.977935 1.5152409,5.605069 3.8184755,7.144241 C 6.2103951,17.35749 4.88685,16.971541 3.7297311,16.32872 c -8.367e-4,0.03765 -8.367e-4,0.07154 -8.367e-4,0.107939 0,4.158607 2.9587318,7.627538 6.8851886,8.416327 -0.7201356,0.196213 -1.4784256,0.301224 -2.2612318,0.301224 -0.5531225,0 -1.0908074,-0.05397 -1.6149792,-0.15396 1.0922719,3.409857 4.262112,5.891651 8.018083,5.960598 -2.93752,2.302314 -6.6384349,3.674515 -10.6599438,3.674515 -0.6928154,0 -1.376092,-0.04184 -2.0475288,-0.120071 3.7984775,2.435271 8.3102286,3.856505 13.1573836,3.856505 15.787739,0 24.421365,-13.07894 24.421365,-24.421533 0,-0.371928 -0.0084,-0.742183 -0.0251,-1.110346 1.677232,-1.210335 3.132312,-2.721895 4.28303,-4.4432644"
     style="fill:#00aced"
     id="path4" />
  <g
     id="g2990"
     transform="matrix(0.1375,0,0,0.1375,23.352755,23.226687)">
    <path
       inkscape:connector-curvature="0"
       style="color:#000000;fill:url(#linearGradient3005);fill-opacity:1;fill-rule:evenodd;stroke:none;stroke-width:0.5;marker:none;visibility:visible;display:inline;overflow:visible"
       id="path7508"
       d="m 79.8646,119.09957 c 35.39768,48.25534 70.03957,-13.46852 69.98868,-50.58675 C 149.79308,24.62677 105.31237,0.09913 79.8356,0.09913 38.94318,0.09913 0,33.89521 0,80.13502 c 0,51.396 44.64038,79.86497 79.8356,79.86497 -7.96447,-1.14675 -34.5062,-6.83395 -34.86292,-67.96677 -0.23987,-41.3466 13.48757,-57.86551 34.80527,-50.59905 0.47743,0.17707 23.51392,9.26451 23.51392,38.95053 0,29.55992 -23.42727,38.71487 -23.42727,38.71487 z" />
    <path
       inkscape:connector-curvature="0"
       style="color:#000000;fill:url(#linearGradient3018);fill-opacity:1;fill-rule:evenodd;stroke:none;stroke-width:0.5;marker:none;visibility:visible;display:inline;overflow:visible"
       id="path7510"
       d="M 79.82327,41.40081 C 56.43322,33.33893 27.78025,52.61662 27.78025,91.22962 c 0,63.04798 46.72055,68.77037 52.38416,68.77037 C 121.05683,159.99999 160,126.20391 160,79.9641 160,28.5681 115.35962,0.09913 80.16441,0.09913 c 9.74811,-1.35 52.54087,10.54991 52.54087,69.0368 0,38.14117 -31.95286,58.90496 -52.73547,50.03344 -0.47743,-0.17707 -23.51392,-9.26451 -23.51392,-38.95053 0,-29.55992 23.36738,-38.81803 23.36738,-38.81803 z" />
  </g>
</svg>
